<svg width="30" height="26" viewBox="0 0 30 26" fill="none" xmlns="http://www.w3.org/2000/svg">
<mask id="mask0_113_6" style="mask-type:luminance" maskUnits="userSpaceOnUse" x="1" y="1" width="28" height="24">
<path d="M27.8125 10.8335H15V15.4377H22.375C21.6875 18.3627 18.8125 20.0418 15 20.0418C10.5 20.0418 6.875 16.9002 6.875 13.0002C6.875 9.10016 10.5 5.9585 15 5.9585C16.9375 5.9585 18.6875 6.55433 20.0625 7.52933L24.0625 4.06266C21.625 2.221 18.5 1.0835 15 1.0835C7.375 1.0835 1.25 6.39183 1.25 13.0002C1.25 19.6085 7.375 24.9168 15 24.9168C21.875 24.9168 28.125 20.5835 28.125 13.0002C28.125 12.296 28 11.5377 27.8125 10.8335Z" fill="white"/>
</mask>
<g mask="url(#mask0_113_6)">
<path d="M0 20.0418V5.9585L10.625 13.0002L0 20.0418Z" fill="#FBBC05"/>
</g>
<mask id="mask1_113_6" style="mask-type:luminance" maskUnits="userSpaceOnUse" x="1" y="1" width="28" height="24">
<path d="M27.8125 10.8335H15V15.4377H22.375C21.6875 18.3627 18.8125 20.0418 15 20.0418C10.5 20.0418 6.875 16.9002 6.875 13.0002C6.875 9.10016 10.5 5.9585 15 5.9585C16.9375 5.9585 18.6875 6.55433 20.0625 7.52933L24.0625 4.06266C21.625 2.221 18.5 1.0835 15 1.0835C7.375 1.0835 1.25 6.39183 1.25 13.0002C1.25 19.6085 7.375 24.9168 15 24.9168C21.875 24.9168 28.125 20.5835 28.125 13.0002C28.125 12.296 28 11.5377 27.8125 10.8335Z" fill="white"/>
</mask>
<g mask="url(#mask1_113_6)">
<path d="M0 5.95833L10.625 13L15 9.69583L30 7.58333V0H0V5.95833Z" fill="#EA4335"/>
</g>
<mask id="mask2_113_6" style="mask-type:luminance" maskUnits="userSpaceOnUse" x="1" y="1" width="28" height="24">
<path d="M27.8125 10.8335H15V15.4377H22.375C21.6875 18.3627 18.8125 20.0418 15 20.0418C10.5 20.0418 6.875 16.9002 6.875 13.0002C6.875 9.10016 10.5 5.9585 15 5.9585C16.9375 5.9585 18.6875 6.55433 20.0625 7.52933L24.0625 4.06266C21.625 2.221 18.5 1.0835 15 1.0835C7.375 1.0835 1.25 6.39183 1.25 13.0002C1.25 19.6085 7.375 24.9168 15 24.9168C21.875 24.9168 28.125 20.5835 28.125 13.0002C28.125 12.296 28 11.5377 27.8125 10.8335Z" fill="white"/>
</mask>
<g mask="url(#mask2_113_6)">
<path d="M0 20.0417L18.75 7.58333L23.6875 8.125L30 0V26H0V20.0417Z" fill="#34A853"/>
</g>
<mask id="mask3_113_6" style="mask-type:luminance" maskUnits="userSpaceOnUse" x="1" y="1" width="28" height="24">
<path d="M27.8125 10.8335H15V15.4377H22.375C21.6875 18.3627 18.8125 20.0418 15 20.0418C10.5 20.0418 6.875 16.9002 6.875 13.0002C6.875 9.10016 10.5 5.9585 15 5.9585C16.9375 5.9585 18.6875 6.55433 20.0625 7.52933L24.0625 4.06266C21.625 2.221 18.5 1.0835 15 1.0835C7.375 1.0835 1.25 6.39183 1.25 13.0002C1.25 19.6085 7.375 24.9168 15 24.9168C21.875 24.9168 28.125 20.5835 28.125 13.0002C28.125 12.296 28 11.5377 27.8125 10.8335Z" fill="white"/>
</mask>
<g mask="url(#mask3_113_6)">
<path d="M30 26.0002L10.625 13.0002L8.125 11.3752L30 5.9585V26.0002Z" fill="#4285F4"/>
</g>
</svg>
