      <svg
        width="28"
        height="22"
        viewBox="0 0 35 27"
        fill="none"
        xmlns="http://www.w3.org/2000/svg"
      >
        <path
          d="M33.1528 11.25H1.84722C0.82703 11.25 0 12.207 0 13.3875V13.6125C0 14.793 0.82703 15.75 1.84722 15.75H33.1528C34.173 15.75 35 14.793 35 13.6125V13.3875C35 12.207 34.173 11.25 33.1528 11.25Z"
          fill="black"
        />
        <path
          d="M33.1528 22.5002H1.84722C0.82703 22.5002 0 23.4572 0 24.6377V24.8627C0 26.0433 0.82703 27.0002 1.84722 27.0002H33.1528C34.173 27.0002 35 26.0433 35 24.8627V24.6377C35 23.4572 34.173 22.5002 33.1528 22.5002Z"
          fill="black"
        />
        <path
          d="M33.1528 0H1.84722C0.82703 0 0 0.956991 0 2.1375V2.3625C0 3.54301 0.82703 4.5 1.84722 4.5H33.1528C34.173 4.5 35 3.54301 35 2.3625V2.1375C35 0.956991 34.173 0 33.1528 0Z"
          fill="black"
        />
      </svg>